# xmcd
#
# Track frame offsets: 
#        150
#        19924
#        42267
#        56980
#        77897
#        96231
#        115794
#        137668
#        156889
#        179482
#        197694
#
# Disc length: 2919 seconds
#
# Revision: 0
# Processed by: cddbd v1.5.1PL0 Copyright (c) Steve Scherf et al.
# Submitted via: ExactAudioCopy v0.95a3
#
DISCID=970b650b
DTITLE=Laye Sow - Djamano
DYEAR=2004
DGENRE=Ethnic
TTITLE0=Kairaba
TTITLE1=Ya La Lum
TTITLE2=Mauritania
TTITLE3=Kayba
TTITLE4=Jami Lo Laye Laye
TTITLE5=Boonoo
TTITLE6=Abuna
TTITLE7=Samba
TTITLE8=Djamano
TTITLE9=Bababmba
TTITLE10=Afrika
EXTD=
EXTT0=
EXTT1=
EXTT2=
EXTT3=
EXTT4=
EXTT5=
EXTT6=
EXTT7=
EXTT8=
EXTT9=
EXTT10=
PLAYORDER=
